<svg width="600" height="500" viewBox="0 0 600 500" xmlns="http://www.w3.org/2000/svg">
  <rect width="600" height="500" fill="#f7fafc" />
  <text x="20" y="35" fill="#2d3748" font-size="20" font-weight="bold">Performance Analytics</text>
  
  <rect x="30" y="60" width="130" height="80" rx="5" fill="white" stroke="#e2e8f0" stroke-width="1" />
  <text x="45" y="85" fill="#718096" font-size="11">Avg Completion Time</text>
  <text x="45" y="115" fill="#2d3748" font-size="24" font-weight="bold">4.2h</text>
  <text x="45" y="135" fill="#48bb78" font-size="10">↓ 15% faster</text>
  
  <rect x="175" y="60" width="130" height="80" rx="5" fill="white" stroke="#e2e8f0" stroke-width="1" />
  <text x="190" y="85" fill="#718096" font-size="11">Resolution Rate</text>
  <text x="190" y="115" fill="#2d3748" font-size="24" font-weight="bold">96%</text>
  <text x="190" y="135" fill="#48bb78" font-size="10">↑ 4% improved</text>
  
  <rect x="320" y="60" width="130" height="80" rx="5" fill="white" stroke="#e2e8f0" stroke-width="1" />
  <text x="335" y="85" fill="#718096" font-size="11">Active Users</text>
  <text x="335" y="115" fill="#2d3748" font-size="24" font-weight="bold">342</text>
  <text x="335" y="135" fill="#4299e1" font-size="10">23 online now</text>
  
  <rect x="465" y="60" width="115" height="80" rx="5" fill="white" stroke="#e2e8f0" stroke-width="1" />
  <text x="480" y="85" fill="#718096" font-size="11">Bottlenecks</text>
  <text x="480" y="115" fill="#2d3748" font-size="24" font-weight="bold">3</text>
  <text x="480" y="135" fill="#ed8936" font-size="10">Identified</text>
  
  <rect x="30" y="160" width="260" height="150" rx="5" fill="white" stroke="#e2e8f0" stroke-width="1" />
  <text x="45" y="185" fill="#2d3748" font-size="13" font-weight="bold">Requests by Department</text>
  
  <rect x="50" y="210" width="40" height="80" fill="#667eea" />
  <text x="55" y="300" fill="#4a5568" font-size="10">IT</text>
  <rect x="100" y="230" width="40" height="60" fill="#4299e1" />
  <text x="100" y="300" fill="#4a5568" font-size="10">HR</text>
  <rect x="150" y="245" width="40" height="45" fill="#48bb78" />
  <text x="145" y="300" fill="#4a5568" font-size="10">Finance</text>
  <rect x="200" y="250" width="40" height="40" fill="#ed8936" />
  <text x="195" y="300" fill="#4a5568" font-size="10">Admin</text>
  
  <g transform="translate(430, 235)">
    <text x="-100" y="-50" fill="#2d3748" font-size="13" font-weight="bold">Status Distribution</text>
    <circle cx="0" cy="0" r="60" fill="#48bb78" />
    <path d="M 0,0 L 0,-60 A 60,60 0 0,1 52,-30 Z" fill="#4299e1" />
    <path d="M 0,0 L 52,-30 A 60,60 0 0,1 30,52 Z" fill="#ed8936" />
    <path d="M 0,0 L 30,52 A 60,60 0 0,1 -42,42 Z" fill="#f56565" />
  </g>
  
  <rect x="345" y="290" width="10" height="10" fill="#48bb78" />
  <text x="360" y="299" fill="#4a5568" font-size="10">Completed (58%)</text>
  <rect x="345" y="305" width="10" height="10" fill="#4299e1" />
  <text x="360" y="314" fill="#4a5568" font-size="10">In Progress (25%)</text>
  <rect x="465" y="290" width="10" height="10" fill="#ed8936" />
  <text x="480" y="299" fill="#4a5568" font-size="10">Pending (12%)</text>
  <rect x="465" y="305" width="10" height="10" fill="#f56565" />
  <text x="480" y="314" fill="#4a5568" font-size="10">Delayed (5%)</text>
  
  <rect x="30" y="330" width="550" height="150" rx="5" fill="white" stroke="#e2e8f0" stroke-width="1" />
  <text x="45" y="355" fill="#2d3748" font-size="13" font-weight="bold">Request Volume (Last 7 Days)</text>
  
  <polyline points="60,440 120,410 180,425 240,395 300,415 360,380 420,400 480,370 540,390" 
            fill="none" stroke="#667eea" stroke-width="3" />
  
  <text x="50" y="470" fill="#718096" font-size="9">Mon</text>
  <text x="110" y="470" fill="#718096" font-size="9">Tue</text>
  <text x="170" y="470" fill="#718096" font-size="9">Wed</text>
  <text x="230" y="470" fill="#718096" font-size="9">Thu</text>
  <text x="295" y="470" fill="#718096" font-size="9">Fri</text>
  <text x="355" y="470" fill="#718096" font-size="9">Sat</text>
  <text x="415" y="470" fill="#718096" font-size="9">Sun</text>
</svg>
