<svg width="600" height="400" viewBox="0 0 600 400" xmlns="http://www.w3.org/2000/svg">
  <rect width="600" height="400" fill="#f7fafc" />
  <text x="20" y="35" fill="#2d3748" font-size="20" font-weight="bold">API &amp; Integration Layer</text>
  
  <rect x="220" y="150" width="160" height="100" rx="10" fill="#667eea" stroke="#5a67d8" stroke-width="3" />
  <text x="260" y="185" fill="white" font-size="16" font-weight="bold">Service Flow</text>
  <text x="280" y="210" fill="white" font-size="14">REST API</text>
  <text x="265" y="235" fill="#e6e9ff" font-size="11">v1.0 (GraphQL)</text>
  
  <rect x="50" y="60" width="100" height="60" rx="5" fill="white" stroke="#4299e1" stroke-width="2" />
  <text x="75" y="85" fill="#2d3748" font-size="12" font-weight="bold">Ticketing</text>
  <text x="75" y="105" fill="#718096" font-size="10">System</text>
  
  <rect x="450" y="60" width="100" height="60" rx="5" fill="white" stroke="#48bb78" stroke-width="2" />
  <text x="485" y="85" fill="#2d3748" font-size="12" font-weight="bold">ERP</text>
  <text x="475" y="105" fill="#718096" font-size="10">Integration</text>
  
  <rect x="50" y="280" width="100" height="60" rx="5" fill="white" stroke="#ed8936" stroke-width="2" />
  <text x="80" y="305" fill="#2d3748" font-size="12" font-weight="bold">CRM</text>
  <text x="70" y="325" fill="#718096" font-size="10">Salesforce</text>
  
  <rect x="450" y="280" width="100" height="60" rx="5" fill="white" stroke="#9f7aea" stroke-width="2" />
  <text x="470" y="305" fill="#2d3748" font-size="12" font-weight="bold">Slack</text>
  <text x="465" y="325" fill="#718096" font-size="10">Notifications</text>
  
  <path d="M150 90 L220 180" stroke="#4299e1" stroke-width="2" stroke-dasharray="5,5" />
  <path d="M450 90 L380 180" stroke="#48bb78" stroke-width="2" stroke-dasharray="5,5" />
  <path d="M150 310 L220 230" stroke="#ed8936" stroke-width="2" stroke-dasharray="5,5" />
  <path d="M450 310 L380 230" stroke="#9f7aea" stroke-width="2" stroke-dasharray="5,5" />
  
  <rect x="180" y="310" width="240" height="70" rx="5" fill="white" stroke="#e2e8f0" stroke-width="1" />
  <text x="195" y="330" fill="#2d3748" font-size="11" font-weight="bold">Webhook Support:</text>
  <text x="195" y="347" fill="#4a5568" font-size="10">• Real-time event notifications</text>
  <text x="195" y="362" fill="#4a5568" font-size="10">• Custom endpoint configuration</text>
  <text x="195" y="377" fill="#4a5568" font-size="10">• Retry mechanism with backoff</text>
</svg>
