<svg width="600" height="350" viewBox="0 0 600 350" xmlns="http://www.w3.org/2000/svg">
  <rect width="600" height="350" fill="#f7fafc" />
  <text x="20" y="35" fill="#2d3748" font-size="20" font-weight="bold">Multi-Level Approval Flow</text>
  
  <rect x="50" y="80" width="140" height="70" rx="8" fill="white" stroke="#cbd5e0" stroke-width="2" />
  <circle cx="80" cy="100" r="15" fill="#4299e1" />
  <text x="95" y="107" fill="#2d3748" font-size="12" font-weight="bold">Level 1: Supervisor</text>
  <text x="60" y="127" fill="#718096" font-size="11">Auto-approve: &lt;$1000</text>
  <text x="60" y="142" fill="#48bb78" font-size="10">✓ Approved</text>
  
  <path d="M190 115 L230 115" stroke="#48bb78" stroke-width="3"/>
  
  <rect x="230" y="80" width="140" height="70" rx="8" fill="white" stroke="#cbd5e0" stroke-width="2" />
  <circle cx="260" cy="100" r="15" fill="#ed8936" />
  <text x="275" y="107" fill="#2d3748" font-size="12" font-weight="bold">Level 2: Manager</text>
  <text x="240" y="127" fill="#718096" font-size="11">Required: &gt;$1000</text>
  <text x="240" y="142" fill="#f6ad55" font-size="10">⏱ Pending (2h left)</text>
  
  <path d="M370 115 L410 115" stroke="#cbd5e0" stroke-width="3" stroke-dasharray="5,5" />
  
  <rect x="410" y="80" width="140" height="70" rx="8" fill="white" stroke="#cbd5e0" stroke-width="2" />
  <circle cx="440" cy="100" r="15" fill="#9f7aea" />
  <text x="455" y="107" fill="#2d3748" font-size="12" font-weight="bold">Level 3: Director</text>
  <text x="420" y="127" fill="#718096" font-size="11">Required: &gt;$10000</text>
  <text x="420" y="142" fill="#a0aec0" font-size="10">○ Not Started</text>
  
  <rect x="50" y="180" width="500" height="50" rx="5" fill="#fef5e7" stroke="#f6ad55" stroke-width="2" />
  <text x="65" y="202" fill="#744210" font-size="13" font-weight="bold">⚠ SLA Warning</text>
  <text x="65" y="220" fill="#744210" font-size="11">Response time: 22h elapsed of 24h limit</text>
  
  <rect x="50" y="250" width="500" height="80" rx="5" fill="white" stroke="#e2e8f0" stroke-width="1" />
  <text x="65" y="273" fill="#2d3748" font-size="14" font-weight="bold">Escalation Rules:</text>
  <text x="65" y="293" fill="#4a5568" font-size="12">• Auto-escalate to next level after 24 hours</text>
  <text x="65" y="310" fill="#4a5568" font-size="12">• Notify stakeholders at 80% SLA threshold</text>
</svg>
