<svg width="800" height="600" viewBox="0 0 800 600" xmlns="http://www.w3.org/2000/svg">
  <rect width="800" height="600" fill="#f7fafc" />
  <text x="300" y="35" fill="#2d3748" font-size="24" font-weight="bold">System Architecture</text>
  
  <rect x="50" y="70" width="700" height="100" rx="5" fill="#e6f2ff" stroke="#4299e1" stroke-width="2" />
  <text x="340" y="95" fill="#2c5282" font-size="14" font-weight="bold">Frontend Layer</text>
  
  <rect x="80" y="110" width="120" height="40" rx="3" fill="white" stroke="#4299e1" stroke-width="1" />
  <text x="110" y="135" fill="#2d3748" font-size="11">Web App (React)</text>
  
  <rect x="220" y="110" width="120" height="40" rx="3" fill="white" stroke="#4299e1" stroke-width="1" />
  <text x="240" y="135" fill="#2d3748" font-size="11">Mobile App</text>
  
  <rect x="360" y="110" width="120" height="40" rx="3" fill="white" stroke="#4299e1" stroke-width="1" />
  <text x="380" y="135" fill="#2d3748" font-size="11">Admin Dashboard</text>
  
  <rect x="250" y="200" width="300" height="60" rx="5" fill="#667eea" stroke="#5a67d8" stroke-width="2" />
  <text x="335" y="225" fill="white" font-size="14" font-weight="bold">API Gateway</text>
  <text x="320" y="245" fill="#e6e9ff" font-size="11">Load Balancer • Rate Limiting • Auth</text>
  
  <rect x="50" y="290" width="700" height="120" rx="5" fill="#f0fff4" stroke="#48bb78" stroke-width="2" />
  <text x="310" y="315" fill="#22543d" font-size="14" font-weight="bold">Application Layer</text>
  
  <rect x="80" y="330" width="130" height="50" rx="3" fill="white" stroke="#48bb78" stroke-width="1" />
  <text x="95" y="350" fill="#2d3748" font-size="11">Workflow Engine</text>
  <text x="95" y="365" fill="#718096" font-size="9">(Bull Queue)</text>
  
  <rect x="230" y="330" width="130" height="50" rx="3" fill="white" stroke="#48bb78" stroke-width="1" />
  <text x="250" y="350" fill="#2d3748" font-size="11">Service Layer</text>
  <text x="250" y="365" fill="#718096" font-size="9">(Node.js/Express)</text>
  
  <rect x="380" y="330" width="130" height="50" rx="3" fill="white" stroke="#48bb78" stroke-width="1" />
  <text x="405" y="350" fill="#2d3748" font-size="11">SLA Engine</text>
  <text x="405" y="365" fill="#718096" font-size="9">(Scheduler)</text>
  
  <rect x="530" y="330" width="130" height="50" rx="3" fill="white" stroke="#48bb78" stroke-width="1" />
  <text x="545" y="350" fill="#2d3748" font-size="11">Notification Service</text>
  <text x="545" y="365" fill="#718096" font-size="9">(Socket.io)</text>
  
  <rect x="50" y="440" width="700" height="120" rx="5" fill="#fffaf0" stroke="#ed8936" stroke-width="2" />
  <text x="330" y="465" fill="#7c2d12" font-size="14" font-weight="bold">Data Layer</text>
  
  <rect x="100" y="485" width="150" height="50" rx="3" fill="white" stroke="#ed8936" stroke-width="1" />
  <text x="130" y="505" fill="#2d3748" font-size="11">PostgreSQL</text>
  <text x="130" y="520" fill="#718096" font-size="9">Primary Database</text>
  
  <rect x="280" y="485" width="110" height="50" rx="3" fill="white" stroke="#ed8936" stroke-width="1" />
  <text x="305" y="505" fill="#2d3748" font-size="11">Redis</text>
  <text x="300" y="520" fill="#718096" font-size="9">Cache &amp; Queue</text>
  
  <rect x="420" y="485" width="130" height="50" rx="3" fill="white" stroke="#ed8936" stroke-width="1" />
  <text x="445" y="505" fill="#2d3748" font-size="11">File Storage</text>
  <text x="445" y="520" fill="#718096" font-size="9">S3 / Local</text>
  
  <rect x="580" y="485" width="130" height="50" rx="3" fill="white" stroke="#ed8936" stroke-width="1" />
  <text x="605" y="505" fill="#2d3748" font-size="11">Analytics DB</text>
  <text x="605" y="520" fill="#718096" font-size="9">Time Series</text>
  
  <defs>
    <marker id="arrow" markerWidth="10" markerHeight="10" refX="9" refY="3" orient="auto">
      <polygon points="0 0, 10 3, 0 6" fill="#4a5568" />
    </marker>
  </defs>
  
  <path d="M400 170 L400 200" stroke="#4a5568" stroke-width="2" marker-end="url(#arrow)" />
  <path d="M400 260 L400 290" stroke="#4a5568" stroke-width="2" marker-end="url(#arrow)" />
  <path d="M400 410 L400 440" stroke="#4a5568" stroke-width="2" marker-end="url(#arrow)" />
</svg>
