<svg width="600" height="200" viewBox="0 0 600 200" xmlns="http://www.w3.org/2000/svg">
  <rect width="600" height="200" fill="#f7fafc" />
  <text x="200" y="30" fill="#2d3748" font-size="18" font-weight="bold">Docker Setup Process</text>
  
  <rect x="50" y="60" width="120" height="80" rx="5" fill="#4299e1" stroke="#2c5282" stroke-width="2"/>
  <text x="85" y="90" fill="white" font-size="14" font-weight="bold">1. Build</text>
  <text x="70" y="110" fill="white" font-size="11">docker-compose</text>
  <text x="85" y="125" fill="white" font-size="11">build</text>
  
  <path d="M170 100 L210 100" stroke="#4a5568" stroke-width="2"/>
  <polygon points="210,100 200,95 200,105" fill="#4a5568"/>
  
  <rect x="210" y="60" width="120" height="80" rx="5" fill="#48bb78" stroke="#2f855a" stroke-width="2"/>
  <text x="240" y="90" fill="white" font-size="14" font-weight="bold">2. Start</text>
  <text x="230" y="110" fill="white" font-size="11">docker-compose</text>
  <text x="255" y="125" fill="white" font-size="11">up -d</text>
  
  <path d="M330 100 L370 100" stroke="#4a5568" stroke-width="2"/>
  <polygon points="370,100 360,95 360,105" fill="#4a5568"/>
  
  <rect x="370" y="60" width="120" height="80" rx="5" fill="#667eea" stroke="#5a67d8" stroke-width="2"/>
  <text x="395" y="90" fill="white" font-size="14" font-weight="bold">3. Ready</text>
  <text x="385" y="110" fill="white" font-size="11">Services running</text>
  <text x="390" y="125" fill="white" font-size="11">on localhost</text>
  
  <text x="150" y="175" fill="#718096" font-size="12">⚡ Full stack deployed in 3 commands</text>
</svg>
