<svg width="600" height="400" viewBox="0 0 600 400" xmlns="http://www.w3.org/2000/svg">
  <rect width="600" height="400" fill="#f7fafc" />
  <text x="20" y="35" fill="#2d3748" font-size="20" font-weight="bold">Real-Time Notification Center</text>
  
  <rect x="50" y="60" width="500" height="70" rx="8" fill="white" stroke="#4299e1" stroke-width="2" />
  <circle cx="80" cy="95" r="20" fill="#4299e1" />
  <text x="75" y="100" fill="white" font-size="16">📋</text>
  <text x="115" y="85" fill="#2d3748" font-size="14" font-weight="bold">New Service Request #SR-2457</text>
  <text x="115" y="105" fill="#718096" font-size="12">IT Support - Laptop replacement required</text>
  <text x="480" y="85" fill="#a0aec0" font-size="10">2m ago</text>
  <rect x="115" y="110" width="60" height="18" rx="3" fill="#edf2f7" />
  <text x="120" y="122" fill="#4a5568" font-size="10">Priority: High</text>
  
  <rect x="50" y="145" width="500" height="70" rx="8" fill="white" stroke="#ed8936" stroke-width="2" />
  <circle cx="80" cy="180" r="20" fill="#ed8936" />
  <text x="75" y="185" fill="white" font-size="16">✋</text>
  <text x="115" y="170" fill="#2d3748" font-size="14" font-weight="bold">Approval Required #SR-2443</text>
  <text x="115" y="190" fill="#718096" font-size="12">Budget approval needed for software license</text>
  <text x="475" y="170" fill="#a0aec0" font-size="10">15m ago</text>
  <rect x="115" y="195" width="70" height="18" rx="3" fill="#fff5f5" />
  <text x="120" y="207" fill="#c53030" font-size="10">SLA: 2h left</text>
  
  <rect x="50" y="230" width="500" height="70" rx="8" fill="white" stroke="#48bb78" stroke-width="2" />
  <circle cx="80" cy="265" r="20" fill="#48bb78" />
  <text x="75" y="270" fill="white" font-size="16">✓</text>
  <text x="115" y="255" fill="#2d3748" font-size="14" font-weight="bold">Request Completed #SR-2401</text>
  <text x="115" y="275" fill="#718096" font-size="12">Hardware installation finished successfully</text>
  <text x="475" y="255" fill="#a0aec0" font-size="10">1h ago</text>
  <rect x="115" y="280" width="65" height="18" rx="3" fill="#f0fff4" />
  <text x="120" y="292" fill="#22543d" font-size="10">Completed</text>
  
  <rect x="50" y="315" width="500" height="70" rx="8" fill="white" stroke="#f56565" stroke-width="2" />
  <circle cx="80" cy="350" r="20" fill="#f56565" />
  <text x="75" y="355" fill="white" font-size="16">⚠</text>
  <text x="115" y="340" fill="#2d3748" font-size="14" font-weight="bold">SLA Breach Alert #SR-2389</text>
  <text x="115" y="360" fill="#718096" font-size="12">Request escalated due to missed deadline</text>
  <text x="475" y="340" fill="#a0aec0" font-size="10">3h ago</text>
  <rect x="115" y="365" width="50" height="18" rx="3" fill="#fff5f5" />
  <text x="120" y="377" fill="#c53030" font-size="10">Urgent</text>
</svg>
