<svg width="700" height="350" viewBox="0 0 700 350" xmlns="http://www.w3.org/2000/svg">
  <rect width="700" height="350" fill="#f7fafc"/>
  <text x="20" y="30" fill="#2d3748" font-size="18" font-weight="bold">Performance Metrics Overview</text>
  
  <rect x="50" y="60" width="150" height="100" rx="5" fill="white" stroke="#e2e8f0" stroke-width="1"/>
  <text x="70" y="85" fill="#718096" font-size="11">Response Time</text>
  <text x="70" y="120" fill="#48bb78" font-size="28" font-weight="bold">2.3h</text>
  <text x="70" y="145" fill="#48bb78" font-size="10">↓ 23% faster</text>
  
  <rect x="220" y="60" width="150" height="100" rx="5" fill="white" stroke="#e2e8f0" stroke-width="1"/>
  <text x="240" y="85" fill="#718096" font-size="11">First Response</text>
  <text x="240" y="120" fill="#4299e1" font-size="28" font-weight="bold">45m</text>
  <text x="240" y="145" fill="#4299e1" font-size="10">Average time</text>
  
  <rect x="390" y="60" width="150" height="100" rx="5" fill="white" stroke="#e2e8f0" stroke-width="1"/>
  <text x="410" y="85" fill="#718096" font-size="11">Resolution Rate</text>
  <text x="410" y="120" fill="#9f7aea" font-size="28" font-weight="bold">97%</text>
  <text x="410" y="145" fill="#9f7aea" font-size="10">First contact</text>
  
  <rect x="560" y="60" width="110" height="100" rx="5" fill="white" stroke="#e2e8f0" stroke-width="1"/>
  <text x="575" y="85" fill="#718096" font-size="11">Satisfaction</text>
  <text x="575" y="120" fill="#ed8936" font-size="28" font-weight="bold">4.8</text>
  <text x="575" y="145" fill="#ed8936" font-size="10">out of 5.0</text>
  
  <rect x="50" y="180" width="620" height="150" rx="5" fill="white" stroke="#e2e8f0" stroke-width="1"/>
  <text x="70" y="205" fill="#2d3748" font-size="13" font-weight="bold">Team Efficiency</text>
  
  <rect x="70" y="220" width="120" height="30" rx="3" fill="#48bb78"/>
  <text x="85" y="242" fill="white" font-size="11" font-weight="bold">Team A: 95%</text>
  
  <rect x="70" y="260" width="140" height="30" rx="3" fill="#4299e1"/>
  <text x="85" y="282" fill="white" font-size="11" font-weight="bold">Team B: 88%</text>
  
  <rect x="70" y="300" width="100" height="30" rx="3" fill="#ed8936"/>
  <text x="85" y="322" fill="white" font-size="11" font-weight="bold">Team C: 92%</text>
</svg>
