<svg width="700" height="300" viewBox="0 0 700 300" xmlns="http://www.w3.org/2000/svg">
  <rect width="700" height="300" fill="#f7fafc"/>
  <text x="20" y="30" fill="#2d3748" font-size="18" font-weight="bold">Service Request Tracking</text>
  
  <rect x="50" y="60" width="600" height="220" rx="5" fill="white" stroke="#e2e8f0" stroke-width="1"/>
  
  <rect x="70" y="80" width="120" height="40" rx="3" fill="#edf2f7"/>
  <text x="85" y="105" fill="#4a5568" font-size="11">Request ID</text>
  <rect x="210" y="80" width="150" height="40" rx="3" fill="#edf2f7"/>
  <text x="225" y="105" fill="#4a5568" font-size="11">Title</text>
  <rect x="380" y="80" width="100" height="40" rx="3" fill="#edf2f7"/>
  <text x="395" y="105" fill="#4a5568" font-size="11">Status</text>
  <rect x="500" y="80" width="120" height="40" rx="3" fill="#edf2f7"/>
  <text x="515" y="105" fill="#4a5568" font-size="11">Assigned To</text>
  
  <rect x="70" y="130" width="120" height="35" rx="3" fill="white" stroke="#e2e8f0" stroke-width="1"/>
  <text x="85" y="153" fill="#2d3748" font-size="10">SR-2457</text>
  <rect x="210" y="130" width="150" height="35" rx="3" fill="white" stroke="#e2e8f0" stroke-width="1"/>
  <text x="225" y="153" fill="#2d3748" font-size="10">Laptop Replacement</text>
  <rect x="380" y="130" width="100" height="35" rx="3" fill="#48bb78"/>
  <text x="395" y="153" fill="white" font-size="10">In Progress</text>
  <rect x="500" y="130" width="120" height="35" rx="3" fill="white" stroke="#e2e8f0" stroke-width="1"/>
  <text x="515" y="153" fill="#2d3748" font-size="10">John Doe</text>
  
  <rect x="70" y="175" width="120" height="35" rx="3" fill="white" stroke="#e2e8f0" stroke-width="1"/>
  <text x="85" y="198" fill="#2d3748" font-size="10">SR-2443</text>
  <rect x="210" y="175" width="150" height="35" rx="3" fill="white" stroke="#e2e8f0" stroke-width="1"/>
  <text x="225" y="198" fill="#2d3748" font-size="10">Software License</text>
  <rect x="380" y="175" width="100" height="35" rx="3" fill="#ed8936"/>
  <text x="395" y="198" fill="white" font-size="10">Pending</text>
  <rect x="500" y="175" width="120" height="35" rx="3" fill="white" stroke="#e2e8f0" stroke-width="1"/>
  <text x="515" y="198" fill="#2d3748" font-size="10">Jane Smith</text>
  
  <rect x="70" y="220" width="120" height="35" rx="3" fill="white" stroke="#e2e8f0" stroke-width="1"/>
  <text x="85" y="243" fill="#2d3748" font-size="10">SR-2401</text>
  <rect x="210" y="220" width="150" height="35" rx="3" fill="white" stroke="#e2e8f0" stroke-width="1"/>
  <text x="225" y="243" fill="#2d3748" font-size="10">Hardware Install</text>
  <rect x="380" y="220" width="100" height="35" rx="3" fill="#4299e1"/>
  <text x="395" y="243" fill="white" font-size="10">Completed</text>
  <rect x="500" y="220" width="120" height="35" rx="3" fill="white" stroke="#e2e8f0" stroke-width="1"/>
  <text x="515" y="243" fill="#2d3748" font-size="10">Mike Johnson</text>
</svg>
