<svg width="600" height="400" viewBox="0 0 600 400" xmlns="http://www.w3.org/2000/svg">
  <rect width="600" height="400" fill="#f7fafc" />
  <text x="20" y="35" fill="#2d3748" font-size="20" font-weight="bold">SLA Compliance Dashboard</text>
  
  <g transform="translate(150, 150)">
    <circle cx="0" cy="0" r="80" fill="none" stroke="#e2e8f0" stroke-width="20" />
    <circle cx="0" cy="0" r="80" fill="none" stroke="#48bb78" stroke-width="20" 
            stroke-dasharray="471" stroke-dashoffset="71" transform="rotate(-90)" />
    <text x="-25" y="10" fill="#2d3748" font-size="36" font-weight="bold">94%</text>
    <text x="-40" y="35" fill="#718096" font-size="12">Compliance Rate</text>
  </g>
  
  <rect x="320" y="70" width="250" height="60" rx="5" fill="white" stroke="#e2e8f0" stroke-width="1" />
  <text x="335" y="90" fill="#718096" font-size="12">Met SLA</text>
  <text x="335" y="115" fill="#48bb78" font-size="24" font-weight="bold">1,173</text>
  
  <rect x="320" y="145" width="250" height="60" rx="5" fill="white" stroke="#e2e8f0" stroke-width="1" />
  <text x="335" y="165" fill="#718096" font-size="12">SLA Breached</text>
  <text x="335" y="190" fill="#f56565" font-size="24" font-weight="bold">75</text>
  
  <rect x="320" y="220" width="250" height="60" rx="5" fill="white" stroke="#e2e8f0" stroke-width="1" />
  <text x="335" y="240" fill="#718096" font-size="12">At Risk</text>
  <text x="335" y="265" fill="#ed8936" font-size="24" font-weight="bold">42</text>
  
  <rect x="30" y="290" width="540" height="90" rx="5" fill="white" stroke="#e2e8f0" stroke-width="1" />
  <text x="45" y="315" fill="#2d3748" font-size="14" font-weight="bold">Average Response Time by Priority</text>
  
  <rect x="50" y="330" width="80" height="25" rx="3" fill="#48bb78" />
  <text x="60" y="347" fill="white" font-size="11">Low: 8h</text>
  
  <rect x="145" y="330" width="95" height="25" rx="3" fill="#4299e1" />
  <text x="155" y="347" fill="white" font-size="11">Medium: 4h</text>
  
  <rect x="255" y="330" width="90" height="25" rx="3" fill="#ed8936" />
  <text x="265" y="347" fill="white" font-size="11">High: 1.5h</text>
  
  <rect x="360" y="330" width="100" height="25" rx="3" fill="#f56565" />
  <text x="370" y="347" fill="white" font-size="11">Critical: 30m</text>
</svg>
