<svg width="700" height="300" viewBox="0 0 700 300" xmlns="http://www.w3.org/2000/svg">
  <rect width="700" height="300" fill="#f7fafc" />
  <text x="250" y="35" fill="#2d3748" font-size="22" font-weight="bold">Technology Stack</text>
  
  <rect x="50" y="70" width="280" height="200" rx="8" fill="white" stroke="#48bb78" stroke-width="2" />
  <text x="160" y="95" fill="#22543d" font-size="16" font-weight="bold">Backend</text>
  
  <rect x="70" y="110" width="100" height="35" rx="5" fill="#68d391" />
  <text x="95" y="133" fill="white" font-size="12" font-weight="bold">Node.js</text>
  
  <rect x="190" y="110" width="120" height="35" rx="5" fill="#48bb78" />
  <text x="215" y="133" fill="white" font-size="12" font-weight="bold">Express.js</text>
  
  <rect x="70" y="155" width="110" height="35" rx="5" fill="#38a169" />
  <text x="88" y="178" fill="white" font-size="12" font-weight="bold">PostgreSQL</text>
  
  <rect x="200" y="155" width="110" height="35" rx="5" fill="#2f855a" />
  <text x="235" y="178" fill="white" font-size="12" font-weight="bold">Redis</text>
  
  <rect x="70" y="200" width="110" height="35" rx="5" fill="#276749" />
  <text x="88" y="223" fill="white" font-size="12" font-weight="bold">Bull Queue</text>
  
  <rect x="200" y="200" width="110" height="35" rx="5" fill="#22543d" />
  <text x="225" y="223" fill="white" font-size="12" font-weight="bold">Socket.io</text>
  
  <rect x="370" y="70" width="280" height="200" rx="8" fill="white" stroke="#4299e1" stroke-width="2" />
  <text x="475" y="95" fill="#2c5282" font-size="16" font-weight="bold">Frontend</text>
  
  <rect x="390" y="110" width="100" height="35" rx="5" fill="#63b3ed" />
  <text x="420" y="133" fill="white" font-size="12" font-weight="bold">React</text>
  
  <rect x="510" y="110" width="120" height="35" rx="5" fill="#4299e1" />
  <text x="530" y="133" fill="white" font-size="12" font-weight="bold">TypeScript</text>
  
  <rect x="390" y="155" width="110" height="35" rx="5" fill="#3182ce" />
  <text x="408" y="178" fill="white" font-size="12" font-weight="bold">Tailwind CSS</text>
  
  <rect x="520" y="155" width="110" height="35" rx="5" fill="#2c5282" />
  <text x="545" y="178" fill="white" font-size="12" font-weight="bold">Vite</text>
  
  <rect x="390" y="200" width="110" height="35" rx="5" fill="#2b6cb0" />
  <text x="408" y="223" fill="white" font-size="12" font-weight="bold">React Query</text>
  
  <rect x="520" y="200" width="110" height="35" rx="5" fill="#1e4e8c" />
  <text x="550" y="223" fill="white" font-size="12" font-weight="bold">Zustand</text>
</svg>
